<?xml version="1.0"?>
<!-- Generated by SVGo and Plotinum VG -->
<svg width="288pt" height="288pt" viewBox="0 0 288 288"
	xmlns="http://www.w3.org/2000/svg"
	xmlns:xlink="http://www.w3.org/1999/xlink">
<g transform="scale(1, -1) translate(0, -288)">
<path d="M0,0L288,0L288,288L0,288Z" style="fill:#FFFFFF" />
<text x="104.5" y="-278.61" transform="scale(1, -1)"
	style="font-family:Times;font-weight:normal;font-style:normal;font-size:12px">Plotutil example</text>
<text x="160.73" y="-3.9023" transform="scale(1, -1)"
	style="font-family:Times;font-weight:normal;font-style:normal;font-size:12px">X</text>
<text x="67.751" y="-16.541" transform="scale(1, -1)"
	style="font-family:Times;font-weight:normal;font-style:normal;font-size:10px">1</text>
<text x="153.52" y="-16.541" transform="scale(1, -1)"
	style="font-family:Times;font-weight:normal;font-style:normal;font-size:10px">4</text>
<text x="239.29" y="-16.541" transform="scale(1, -1)"
	style="font-family:Times;font-weight:normal;font-style:normal;font-size:10px">7</text>
<path d="M70.251,24.363L70.251,32.363" style="fill:none;stroke:#000000;stroke-width:0.5" />
<path d="M156.02,24.363L156.02,32.363" style="fill:none;stroke:#000000;stroke-width:0.5" />
<path d="M241.79,24.363L241.79,32.363" style="fill:none;stroke:#000000;stroke-width:0.5" />
<path d="M98.842,28.363L98.842,32.363" style="fill:none;stroke:#000000;stroke-width:0.5" />
<path d="M127.43,28.363L127.43,32.363" style="fill:none;stroke:#000000;stroke-width:0.5" />
<path d="M184.61,28.363L184.61,32.363" style="fill:none;stroke:#000000;stroke-width:0.5" />
<path d="M213.2,28.363L213.2,32.363" style="fill:none;stroke:#000000;stroke-width:0.5" />
<path d="M270.39,28.363L270.39,32.363" style="fill:none;stroke:#000000;stroke-width:0.5" />
<path d="M44.635,32.363L285.5,32.363" style="fill:none;stroke:#000000;stroke-width:0.5" />
<g transform="rotate(90)">
<text x="153.13" y="9.3867" transform="scale(1, -1)"
	style="font-family:Times;font-weight:normal;font-style:normal;font-size:12px">Y</text>
</g>
<text x="20.885" y="-56.609" transform="scale(1, -1)"
	style="font-family:Times;font-weight:normal;font-style:normal;font-size:10px">3</text>
<text x="20.885" y="-148.33" transform="scale(1, -1)"
	style="font-family:Times;font-weight:normal;font-style:normal;font-size:10px">9</text>
<text x="15.885" y="-240.05" transform="scale(1, -1)"
	style="font-family:Times;font-weight:normal;font-style:normal;font-size:10px">15</text>
<path d="M28.385,58.894L36.385,58.894" style="fill:none;stroke:#000000;stroke-width:0.5" />
<path d="M28.385,150.61L36.385,150.61" style="fill:none;stroke:#000000;stroke-width:0.5" />
<path d="M28.385,242.33L36.385,242.33" style="fill:none;stroke:#000000;stroke-width:0.5" />
<path d="M32.385,104.75L36.385,104.75" style="fill:none;stroke:#000000;stroke-width:0.5" />
<path d="M32.385,196.47L36.385,196.47" style="fill:none;stroke:#000000;stroke-width:0.5" />
<path d="M36.385,42.709L36.385,272.21" style="fill:none;stroke:#000000;stroke-width:0.5" />
<path d="M68.685,64.93L87.439,45.818L97.948,87.381L103.45,146.25L129.1,85.369L137.35,202.17L161.65,118.93L179.06,125.27L201.21,101.01L223.71,232.57L233.9,180.97L248.49,160.37L254.47,232.76L265.96,176.5L285.5,210.29" style="fill:none;stroke:#F15A60" />
<path d="M71.185,64.93A2.5,2.5 0 1 1 66.185,64.93A2.5,2.5 0 1 1 71.185,64.93Z" style="fill:none;stroke:#F15A60;stroke-width:0.5" />
<path d="M89.939,45.818A2.5,2.5 0 1 1 84.939,45.818A2.5,2.5 0 1 1 89.939,45.818Z" style="fill:none;stroke:#F15A60;stroke-width:0.5" />
<path d="M100.45,87.381A2.5,2.5 0 1 1 95.448,87.381A2.5,2.5 0 1 1 100.45,87.381Z" style="fill:none;stroke:#F15A60;stroke-width:0.5" />
<path d="M105.95,146.25A2.5,2.5 0 1 1 100.95,146.25A2.5,2.5 0 1 1 105.95,146.25Z" style="fill:none;stroke:#F15A60;stroke-width:0.5" />
<path d="M131.6,85.369A2.5,2.5 0 1 1 126.6,85.369A2.5,2.5 0 1 1 131.6,85.369Z" style="fill:none;stroke:#F15A60;stroke-width:0.5" />
<path d="M139.85,202.17A2.5,2.5 0 1 1 134.85,202.17A2.5,2.5 0 1 1 139.85,202.17Z" style="fill:none;stroke:#F15A60;stroke-width:0.5" />
<path d="M164.15,118.93A2.5,2.5 0 1 1 159.15,118.93A2.5,2.5 0 1 1 164.15,118.93Z" style="fill:none;stroke:#F15A60;stroke-width:0.5" />
<path d="M181.56,125.27A2.5,2.5 0 1 1 176.56,125.27A2.5,2.5 0 1 1 181.56,125.27Z" style="fill:none;stroke:#F15A60;stroke-width:0.5" />
<path d="M203.71,101.01A2.5,2.5 0 1 1 198.71,101.01A2.5,2.5 0 1 1 203.71,101.01Z" style="fill:none;stroke:#F15A60;stroke-width:0.5" />
<path d="M226.21,232.57A2.5,2.5 0 1 1 221.21,232.57A2.5,2.5 0 1 1 226.21,232.57Z" style="fill:none;stroke:#F15A60;stroke-width:0.5" />
<path d="M236.4,180.97A2.5,2.5 0 1 1 231.4,180.97A2.5,2.5 0 1 1 236.4,180.97Z" style="fill:none;stroke:#F15A60;stroke-width:0.5" />
<path d="M250.99,160.37A2.5,2.5 0 1 1 245.99,160.37A2.5,2.5 0 1 1 250.99,160.37Z" style="fill:none;stroke:#F15A60;stroke-width:0.5" />
<path d="M256.97,232.76A2.5,2.5 0 1 1 251.97,232.76A2.5,2.5 0 1 1 256.97,232.76Z" style="fill:none;stroke:#F15A60;stroke-width:0.5" />
<path d="M268.46,176.5A2.5,2.5 0 1 1 263.46,176.5A2.5,2.5 0 1 1 268.46,176.5Z" style="fill:none;stroke:#F15A60;stroke-width:0.5" />
<path d="M288,210.29A2.5,2.5 0 1 1 283,210.29A2.5,2.5 0 1 1 288,210.29Z" style="fill:none;stroke:#F15A60;stroke-width:0.5" />
<path d="M44.635,62.925L48.96,128.73L57.943,78.067L76.462,86.619L91.967,42.709L106.78,65.412L128.39,151.53L152.71,85.2L179.11,230.44L192.58,221.33L193.78,219.7L206.06,248.47L207,223.06L223.71,240.44L224.97,189.87" style="fill:none;stroke:#7AC36A;stroke-dasharray:6,2" />
<path d="M42.501,60.791L46.769,60.791L46.769,65.059L42.501,65.059Z" style="fill:none;stroke:#7AC36A;stroke-width:0.5" />
<path d="M46.826,126.6L51.094,126.6L51.094,130.87L46.826,130.87Z" style="fill:none;stroke:#7AC36A;stroke-width:0.5" />
<path d="M55.809,75.933L60.076,75.933L60.076,80.201L55.809,80.201Z" style="fill:none;stroke:#7AC36A;stroke-width:0.5" />
<path d="M74.328,84.485L78.596,84.485L78.596,88.752L74.328,88.752Z" style="fill:none;stroke:#7AC36A;stroke-width:0.5" />
<path d="M89.833,40.575L94.101,40.575L94.101,44.843L89.833,44.843Z" style="fill:none;stroke:#7AC36A;stroke-width:0.5" />
<path d="M104.65,63.278L108.91,63.278L108.91,67.546L104.65,67.546Z" style="fill:none;stroke:#7AC36A;stroke-width:0.5" />
<path d="M126.26,149.39L130.53,149.39L130.53,153.66L126.26,153.66Z" style="fill:none;stroke:#7AC36A;stroke-width:0.5" />
<path d="M150.58,83.067L154.85,83.067L154.85,87.334L150.58,87.334Z" style="fill:none;stroke:#7AC36A;stroke-width:0.5" />
<path d="M176.97,228.31L181.24,228.31L181.24,232.57L176.97,232.57Z" style="fill:none;stroke:#7AC36A;stroke-width:0.5" />
<path d="M190.45,219.2L194.71,219.2L194.71,223.47L190.45,223.47Z" style="fill:none;stroke:#7AC36A;stroke-width:0.5" />
<path d="M191.65,217.56L195.92,217.56L195.92,221.83L191.65,221.83Z" style="fill:none;stroke:#7AC36A;stroke-width:0.5" />
<path d="M203.92,246.34L208.19,246.34L208.19,250.61L203.92,250.61Z" style="fill:none;stroke:#7AC36A;stroke-width:0.5" />
<path d="M204.86,220.93L209.13,220.93L209.13,225.2L204.86,225.2Z" style="fill:none;stroke:#7AC36A;stroke-width:0.5" />
<path d="M221.58,238.31L225.85,238.31L225.85,242.58L221.58,242.58Z" style="fill:none;stroke:#7AC36A;stroke-width:0.5" />
<path d="M222.84,187.74L227.11,187.74L227.11,192.01L222.84,192.01Z" style="fill:none;stroke:#7AC36A;stroke-width:0.5" />
<path d="M59.756,101.21L66.775,44.053L89.226,166.41L101.97,89.552L112.85,193.06L127,78.519L148.75,136.31L155.31,116.68L181.63,120L206.73,225.29L225.5,244.86L238.86,245.49L260.97,264.31L261.08,272.21L267.3,269.89" style="fill:none;stroke:#5A9BD4;stroke-dasharray:2,2" />
<path d="M59.756,104.33L57.05,99.644L62.462,99.644Z" style="fill:none;stroke:#5A9BD4;stroke-width:0.5" />
<path d="M66.775,47.178L64.068,42.491L69.481,42.491Z" style="fill:none;stroke:#5A9BD4;stroke-width:0.5" />
<path d="M89.226,169.54L86.519,164.85L91.932,164.85Z" style="fill:none;stroke:#5A9BD4;stroke-width:0.5" />
<path d="M101.97,92.677L99.269,87.989L104.68,87.989Z" style="fill:none;stroke:#5A9BD4;stroke-width:0.5" />
<path d="M112.85,196.19L110.15,191.5L115.56,191.5Z" style="fill:none;stroke:#5A9BD4;stroke-width:0.5" />
<path d="M127,81.644L124.3,76.957L129.71,76.957Z" style="fill:none;stroke:#5A9BD4;stroke-width:0.5" />
<path d="M148.75,139.44L146.04,134.75L151.45,134.75Z" style="fill:none;stroke:#5A9BD4;stroke-width:0.5" />
<path d="M155.31,119.8L152.61,115.11L158.02,115.11Z" style="fill:none;stroke:#5A9BD4;stroke-width:0.5" />
<path d="M181.63,123.13L178.92,118.44L184.33,118.44Z" style="fill:none;stroke:#5A9BD4;stroke-width:0.5" />
<path d="M206.73,228.41L204.02,223.73L209.43,223.73Z" style="fill:none;stroke:#5A9BD4;stroke-width:0.5" />
<path d="M225.5,247.98L222.8,243.3L228.21,243.3Z" style="fill:none;stroke:#5A9BD4;stroke-width:0.5" />
<path d="M238.86,248.61L236.15,243.93L241.56,243.93Z" style="fill:none;stroke:#5A9BD4;stroke-width:0.5" />
<path d="M260.97,267.43L258.26,262.75L263.67,262.75Z" style="fill:none;stroke:#5A9BD4;stroke-width:0.5" />
<path d="M261.08,275.34L258.37,270.65L263.78,270.65Z" style="fill:none;stroke:#5A9BD4;stroke-width:0.5" />
<path d="M267.3,273.01L264.59,268.32L270,268.32Z" style="fill:none;stroke:#5A9BD4;stroke-width:0.5" />
<path d="M268,65.668L288,65.668" style="fill:none;stroke:#F15A60" />
<path d="M280.5,65.668A2.5,2.5 0 1 1 275.5,65.668A2.5,2.5 0 1 1 280.5,65.668Z" style="fill:none;stroke:#F15A60;stroke-width:0.5" />
<text x="242.99" y="-63.181" transform="scale(1, -1)"
	style="font-family:Times;font-weight:normal;font-style:normal;font-size:12px">First</text>
<path d="M268,55.484L288,55.484" style="fill:none;stroke:#7AC36A;stroke-dasharray:6,2" />
<path d="M275.87,53.35L280.13,53.35L280.13,57.618L275.87,57.618Z" style="fill:none;stroke:#7AC36A;stroke-width:0.5" />
<text x="229.67" y="-52.997" transform="scale(1, -1)"
	style="font-family:Times;font-weight:normal;font-style:normal;font-size:12px">Second</text>
<path d="M268,45.301L288,45.301" style="fill:none;stroke:#5A9BD4;stroke-dasharray:2,2" />
<path d="M278,48.426L275.29,43.738L280.71,43.738Z" style="fill:none;stroke:#5A9BD4;stroke-width:0.5" />
<text x="238.34" y="-42.813" transform="scale(1, -1)"
	style="font-family:Times;font-weight:normal;font-style:normal;font-size:12px">Third</text>
</g>
</svg>
